<?xml version="1.0" standalone="no"?>
<!DOCTYPE svg PUBLIC "-//W3C//DTD SVG 20010904//EN"
 "http://www.w3.org/TR/2001/REC-SVG-20010904/DTD/svg10.dtd">
<svg version="1.0" xmlns="http://www.w3.org/2000/svg"
 width="100.000000pt" height="100.000000pt" viewBox="0 0 100.000000 100.000000"
 preserveAspectRatio="xMidYMid meet">
<metadata>
Created by potrace 1.11, written by Peter Selinger 2001-2013
</metadata>
<g transform="translate(0.000000,100.000000) scale(0.100000,-0.100000)"
fill="#000000" stroke="none">
<path d="M0 500 l0 -500 500 0 500 0 0 500 0 500 -500 0 -500 0 0 -500z m632
323 c65 -29 82 -43 142 -116 50 -61 69 -131 64 -232 -7 -131 -71 -229 -189
-292 -49 -26 -63 -28 -159 -28 -90 0 -112 3 -153 24 -67 33 -138 105 -172 176
-24 51 -29 73 -29 145 -1 71 4 94 26 141 87 187 287 265 470 182z"/>
<path d="M367 804 c-4 -4 -7 -19 -7 -32 0 -14 -7 -34 -17 -44 -15 -17 -15 -18
2 -18 17 0 18 -13 13 -222 -2 -123 -3 -231 -1 -240 8 -35 23 -17 23 27 0 85 9
91 225 140 84 19 145 51 162 85 18 36 15 99 -6 147 -37 80 -130 118 -275 112
-84 -4 -85 -4 -88 20 -3 25 -19 37 -31 25z m80 -114 c92 -56 81 -194 -19 -246
l-28 -15 0 141 c0 77 3 140 8 140 4 0 21 -9 39 -20z"/>
</g>
</svg>
